<?xml version="1.0" encoding="UTF-8" standalone="no"?>
<!-- Created with Inkscape (http://www.inkscape.org/) -->

<svg
   xmlns:dc="http://purl.org/dc/elements/1.1/"
   xmlns:cc="http://creativecommons.org/ns#"
   xmlns:rdf="http://www.w3.org/1999/02/22-rdf-syntax-ns#"
   xmlns:svg="http://www.w3.org/2000/svg"
   xmlns="http://www.w3.org/2000/svg"
   xmlns:sodipodi="http://sodipodi.sourceforge.net/DTD/sodipodi-0.dtd"
   xmlns:inkscape="http://www.inkscape.org/namespaces/inkscape"
   width="849.95813mm"
   height="252.30118mm"
   viewBox="0 0 849.95814 252.30118"
   version="1.1"
   id="svg8"
   inkscape:version="0.92.4 (5da689c313, 2019-01-14)"
   sodipodi:docname="download.svg">
  <defs
     id="defs2" />
  <sodipodi:namedview
     id="base"
     pagecolor="#ffffff"
     bordercolor="#666666"
     borderopacity="1.0"
     inkscape:pageopacity="0.0"
     inkscape:pageshadow="2"
     inkscape:zoom="0.49497475"
     inkscape:cx="364.44"
     inkscape:cy="435.92547"
     inkscape:document-units="mm"
     inkscape:current-layer="layer1"
     showgrid="true"
     fit-margin-top="0"
     fit-margin-left="0"
     fit-margin-right="0"
     fit-margin-bottom="0"
     inkscape:window-width="1920"
     inkscape:window-height="1001"
     inkscape:window-x="-9"
     inkscape:window-y="-9"
     inkscape:window-maximized="1">
    <inkscape:grid
       type="xygrid"
       id="grid920"
       originx="-13.077712"
       originy="-6.5206289" />
    <inkscape:grid
       type="xygrid"
       id="grid4626"
       originx="-13.077712"
       originy="-6.5206289" />
  </sodipodi:namedview>
  <metadata
     id="metadata5">
    <rdf:RDF>
      <cc:Work
         rdf:about="">
        <dc:format>image/svg+xml</dc:format>
        <dc:type
           rdf:resource="http://purl.org/dc/dcmitype/StillImage" />
        <dc:title />
      </cc:Work>
    </rdf:RDF>
  </metadata>
  <g
     inkscape:label="base"
     inkscape:groupmode="layer"
     id="layer1"
     transform="translate(-0.68621179,-20.208069)">
    <path
       style="fill:#ffffff;stroke-width:0.37795276;stroke-miterlimit:4;stroke-dasharray:none"
       d="m 354.49219,76.376953 -8.85938,4.390625 c -16.33826,8.09593 -29.51647,24.078632 -35.13086,42.609372 -1.73187,5.71619 -1.83008,17.32644 -2.10156,245.45117 l -0.28516,239.45118 -46.23632,-46.03516 c -45.49752,-45.29979 -46.37207,-46.1012 -54.73633,-50.16797 -11.05859,-5.37675 -19.0644,-7.16992 -32,-7.16992 -20.19753,0 -35.06885,5.95314 -48.5332,19.42969 -14.09336,14.10614 -19.85157,28.33105 -19.85157,49.04101 0,14.16299 1.62748,21.20213 7.625,33 3.96744,7.80443 6.73422,10.66734 113.16407,117.10352 l 109.0957,109.10351 8.5,4.11914 c 4.675,2.26602 11.2,4.77061 14.5,5.56446 8.06909,1.9409 26.31755,1.97268 34.5,0.0605 3.57502,-0.83546 10.32499,-3.37145 15,-5.63671 l 8.5,-4.11914 107.36328,-107.09766 c 80.86397,-80.6637 108.53186,-108.86059 112.09766,-114.24219 2.79099,-4.21221 5.9258,-10.77987 7.63671,-16 2.64397,-8.06695 2.89641,-10.0567 2.83594,-22.35547 -0.0582,-11.86424 -0.39222,-14.48551 -2.75586,-21.63086 -7.28904,-22.0351 -26.9236,-39.94952 -49.2207,-44.91015 -11.32864,-2.52038 -29.43824,-1.69052 -39.29102,1.80078 -14.12643,5.00568 -16.13928,6.71503 -64.40234,54.68555 l -45.73828,45.46093 -0.26367,-239.95312 -0.26172,-239.95313 -2.72461,-8 C 436.94356,102.83363 424.73788,88.737028 408.5957,80.738281 l -8.80273,-4.361328 h -22.65039 z m 22.65039,0.527344 c 10.57362,0 19.41577,2.027619 28.58789,6.552734 13.45667,6.638937 24.38041,17.885489 31.00195,31.917969 6.8369,14.48883 6.41016,-2.86822 6.41016,260.45898 0,224.29857 0.0989,238.04102 1.7168,238.04102 0.94435,0 23.10685,-21.29276 49.25,-47.31836 42.99042,-42.79718 48.2209,-47.675 54.73242,-51.0293 19.54601,-10.06745 41.09561,-10.06352 60.60156,0.0117 10.81251,5.5849 23.22478,18.38925 28.52734,29.42774 4.19936,8.74197 7.17188,20.51778 7.17188,28.41015 0,7.85654 -2.96447,19.64578 -7.16602,28.5 l -4.0332,8.5 -109.65039,109.5918 C 421.8039,822.40328 414.17266,829.8009 407.44336,833.24609 c -3.95974,2.02723 -10.66941,4.5736 -14.91016,5.65821 -14.97616,3.83025 -31.05962,1.83757 -45.67578,-5.65625 C 340.11106,829.7891 332.54808,822.45677 230.52539,720.46289 146.93614,636.89727 120.69268,610.08823 118.34961,605.875 c -1.68226,-3.02502 -4.29605,-9.09999 -5.80664,-13.5 -2.34408,-6.82772 -2.74609,-9.61188 -2.74609,-19 0,-9.38812 0.40201,-12.17228 2.74609,-19 4.05201,-11.80256 8.00297,-18.07365 17.01758,-27.01367 20.95868,-20.78521 49.74503,-25.27836 75.88281,-11.8418 6.52028,3.35188 11.6827,8.16741 54.72266,51.0293 26.13796,26.02983 48.29449,47.32617 49.23632,47.32617 1.61112,0 1.72821,-14.27466 1.97657,-241.25 l 0.26367,-241.25 2.33789,-7 c 3.78281,-11.32363 8.77366,-19.28979 17.57422,-28.054688 13.29452,-13.240633 27.79283,-19.416015 45.58789,-19.416015 z m 43.08398,12.972656 c 0.275,0 2.48699,2.024999 4.91602,4.5 2.42906,2.475001 4.19116,4.5 3.91601,4.5 -0.27499,0 -2.48699,-2.024999 -4.91601,-4.5 -2.42903,-2.475001 -4.19117,-4.5 -3.91602,-4.5 z M 310.50781,130.22266 c 0.091,0.0138 0.19865,0.16764 0.31836,0.46679 0.28891,0.72188 0.25222,1.58372 -0.0801,1.91602 -0.33227,0.33229 -0.56682,-0.25833 -0.52343,-1.3125 0.03,-0.72809 0.13358,-1.09326 0.28515,-1.07031 z m 134.26172,95.21289 c 0.0366,-1.56479 0.0786,7.21496 0.12305,27.61133 0.14215,65.26835 0.14211,172.36835 0,238 -0.14211,65.63164 -0.25778,12.23007 -0.25781,-118.66993 0,-89.99374 0.0543,-143.49887 0.13476,-146.9414 z m -135,1.96484 c 0.0366,-1.46485 0.0787,7.38269 0.12305,27.80664 0.14201,65.35663 0.14203,172.00664 0,237 -0.14204,64.99336 -0.25783,11.51991 -0.25781,-118.83008 0,-89.61562 0.0543,-142.7539 0.13476,-145.97656 z M 175.14258,505.98828 c 1.90312,0 3.80625,0.0495 5.25,0.15039 2.8875,0.20221 0.525,0.36914 -5.25,0.36914 -5.775,0 -8.1375,-0.16731 -5.25,-0.36914 1.44375,-0.10091 3.34687,-0.15039 5.25,-0.15039 z m 404,0 c 1.90312,0 3.80626,0.0495 5.25,0.15039 2.88748,0.20221 0.525,0.36914 -5.25,0.36914 -5.77501,0 -8.13752,-0.16731 -5.25,-0.36914 1.44374,-0.10091 3.34687,-0.15039 5.25,-0.15039 z m 67.55078,62.59961 c 0.0549,-0.0119 0.11757,0.32943 0.18359,1.06445 0.21014,2.35204 0.20725,5.95207 -0.008,8 -0.21475,2.04798 -0.38659,0.12463 -0.38281,-4.27539 0.002,-3.02501 0.0862,-4.76296 0.20703,-4.78906 z m -539.01953,1.22852 c 0.0581,-3.2e-4 0.1238,0.26646 0.19336,0.82812 0.22254,1.79736 0.2184,4.49737 -0.01,6 -0.22819,1.50267 -0.41034,0.0324 -0.4043,-3.26758 0.004,-2.26876 0.0929,-3.55985 0.22071,-3.56054 z m 269.46875,272.17187 c 1.90312,0 3.80624,0.0495 5.25,0.15039 2.88748,0.20221 0.52498,0.36719 -5.25,0.36719 -5.775,0 -8.1375,-0.16536 -5.25,-0.36719 1.44375,-0.10091 3.34687,-0.15039 5.25,-0.15039 z"
       transform="scale(0.26458333)"
       id="path896"
       inkscape:connector-curvature="0"
       inkscape:label="arrow" />
    <path
       style="fill:#ffffff;stroke:#000000;stroke-width:0.30292875px;stroke-linecap:butt;stroke-linejoin:miter;stroke-opacity:1"
       d="m 0.8376763,245.09419 v -42.41003 c 0,-3.02928 1.1e-6,-13.63179 11.3521387,-13.73866 9.853017,-0.0927 9.852874,13.73866 9.852874,13.73866 l -1e-6,42.41003 c 0,3.02929 0,3.02929 3.029288,3.02929 H 182.59492 c 0,0 3.02929,0 3.02929,-3.02929 v -45.43931 c 0,0 0,-12.11717 12.11715,-12.11716 12.11716,1e-5 12.11716,12.11716 12.11715,12.11716 v 66.64432 c 0,0 0,6.05858 -6.05857,6.05858 -6.05858,0 -196.903689,-3.0293 -196.903689,-3.0293 0,0 -6.0585747,0 -6.0585747,-6.05856 z"
       id="path4628"
       inkscape:connector-curvature="0"
       sodipodi:nodetypes="csscsscscsccscsc"
       inkscape:label="base" />
    <text
       xml:space="preserve"
       style="font-style:normal;font-weight:normal;font-size:10.58333302px;line-height:1.25;font-family:sans-serif;letter-spacing:0px;word-spacing:0px;fill:#ffffff;fill-opacity:1;stroke:none;stroke-width:0.26458332"
       x="237.07278"
       y="180.75606"
       id="text30"><tspan
         sodipodi:role="line"
         id="tspan28"
         x="237.07278"
         y="180.75606"
         style="font-style:normal;font-variant:normal;font-weight:bold;font-stretch:normal;font-size:70.55555725px;font-family:'Franklin Gothic Heavy';-inkscape-font-specification:'Franklin Gothic Heavy, Bold';fill:#ffffff;stroke-width:0.26458332">Download Resume</tspan></text>
  </g>
</svg>
